<svg width="32" height="32" viewBox="0 0 32 32" fill="none" xmlns="http://www.w3.org/2000/svg">
<path d="M29.999 6.06122L17.0393 1.1343C16.5261 0.939208 15.9452 0.939196 15.432 1.1343L2.47205 6.06122C1.63647 6.37891 1.13866 7.14876 1.25144 7.94901L2.80713 18.989C3.07182 20.8671 4.13086 22.586 5.77004 23.7976L14.9296 30.5685C15.6862 31.1278 16.785 31.1278 17.5416 30.5685L26.7012 23.7976C28.3403 22.586 29.3994 20.8671 29.6641 18.989L31.2197 7.94901C31.3326 7.14876 30.8347 6.37891 29.999 6.06122Z" stroke="#008ACC" stroke-width="1.2" stroke-linecap="round"/>
<path d="M16.2356 15.7049C18.8762 15.7049 21.0169 13.806 21.0169 11.4636C21.0169 9.12113 18.8762 7.22221 16.2356 7.22221C13.5949 7.22221 11.4542 9.12113 11.4542 11.4636C11.4542 13.806 13.5949 15.7049 16.2356 15.7049Z" stroke="#008ACC" stroke-linecap="round"/>
<path d="M25.7983 23.7718C25.2342 22.2687 23.9913 20.9405 22.2624 19.9932C20.5333 19.046 18.415 18.5325 16.2356 18.5325C14.0563 18.5325 11.9378 19.046 10.2087 19.9932C8.47981 20.9405 7.23691 22.2687 6.67284 23.7718" stroke="#008ACC" stroke-linecap="round"/>
</svg>
