<svg width="30" height="30" viewBox="0 0 30 30" fill="none" xmlns="http://www.w3.org/2000/svg">
<path d="M25.6809 6.26151L15.7879 2.02167C15.2847 1.80605 14.7152 1.80605 14.2121 2.02167L4.31918 6.26151C3.49994 6.61261 3.0119 7.46345 3.12247 8.34787L4.24583 17.3349C4.5053 19.4106 5.54359 21.3102 7.1506 22.6494L13.7196 28.1236C14.4614 28.7416 15.5386 28.7416 16.2804 28.1236L22.8494 22.6494C24.4564 21.3102 25.4947 19.4106 25.7541 17.3349L26.8775 8.34787C26.9881 7.46346 26.5 6.61261 25.6809 6.26151Z" stroke="#CDCDCD" stroke-width="1.2" stroke-linecap="round"/>
<path d="M15 15C17.0711 15 18.75 13.3211 18.75 11.25C18.75 9.17893 17.0711 7.5 15 7.5C12.9289 7.5 11.25 9.17893 11.25 11.25C11.25 13.3211 12.9289 15 15 15Z" stroke="#CDCDCD" stroke-linecap="round"/>
<path d="M22.5 22.1324C22.0576 20.8034 21.0827 19.6291 19.7267 18.7915C18.3707 17.954 16.7093 17.5 15 17.5C13.2907 17.5 11.6293 17.954 10.2732 18.7915C8.91719 19.6291 7.94239 20.8034 7.5 22.1324" stroke="#CDCDCD" stroke-linecap="round"/>
</svg>
