<svg width="24" height="24" viewBox="0 0 24 24" fill="none" xmlns="http://www.w3.org/2000/svg">
<path fill-rule="evenodd" clip-rule="evenodd" d="M12.5 2V3.24521C16.0572 3.50131 18.8636 6.46838 18.8636 10.0909V14.1364H19.2727C20.553 14.1364 21.5909 15.1743 21.5909 16.4545C21.5909 17.7348 20.553 18.7727 19.2727 18.7727L18.8636 18.7727H15.4144C15.0626 20.3339 13.6674 21.5 12 21.5C10.3325 21.5 8.93737 20.3339 8.58556 18.7727H5.13634L4.72724 18.7727C3.44694 18.7727 2.40906 17.7348 2.40906 16.4545C2.40906 15.1743 3.44694 14.1364 4.72724 14.1364H5.13634V10.0909C5.13634 6.46838 7.94272 3.50131 11.5 3.24521V2C11.5 1.72386 11.7238 1.5 12 1.5C12.2761 1.5 12.5 1.72386 12.5 2ZM9.62168 18.7727C9.94719 19.7753 10.8889 20.5 12 20.5C13.111 20.5 14.0528 19.7753 14.3783 18.7727H9.62168ZM17.8636 14.6336V10.0909C17.8636 6.85252 15.2384 4.22728 12 4.22728C8.76158 4.22728 6.13634 6.85252 6.13634 10.0909V14.6364C6.13633 14.9125 5.91247 15.1364 5.63633 15.1364H4.72724C3.99923 15.1364 3.40906 15.7265 3.40906 16.4545C3.40906 17.1826 3.99923 17.7727 4.72724 17.7727H19.2727C20.0007 17.7727 20.5909 17.1826 20.5909 16.4545C20.5909 15.7265 20.0007 15.1364 19.2727 15.1364H18.3636C18.0875 15.1364 17.8636 14.9125 17.8636 14.6364L17.8636 14.6336Z" fill="white"/>
</svg>
