<svg width="24" height="24" viewBox="0 0 24 24" fill="none" xmlns="http://www.w3.org/2000/svg">
<path fill-rule="evenodd" clip-rule="evenodd" d="M9.12902 5.42857H15.5711H17.9869C18.654 5.42857 19.1948 5.97223 19.1948 6.64286V8.66667L5.50534 8.66667V6.64286C5.50534 5.97223 6.04613 5.42857 6.71323 5.42857H9.12902ZM8.72639 4.61905H6.71323C5.60139 4.61905 4.70007 5.52514 4.70007 6.64286V9.07143V17.9762C4.70007 19.0939 5.60139 20 6.71323 20H17.9869C19.0988 20 20.0001 19.0939 20.0001 17.9762V9.07143V6.64286C20.0001 5.52514 19.0988 4.61905 17.9869 4.61905H15.9738V3.40476C15.9738 3.18122 15.7935 3 15.5711 3C15.3488 3 15.1685 3.18122 15.1685 3.40476V4.61905H9.53165V3.40476C9.53165 3.18122 9.35139 3 9.12902 3C8.90665 3 8.72639 3.18122 8.72639 3.40476V4.61905ZM5.50534 9.47619L19.1948 9.47619V17.9762C19.1948 18.6468 18.654 19.1905 17.9869 19.1905H6.71323C6.04613 19.1905 5.50534 18.6468 5.50534 17.9762V9.47619ZM7.51849 12.3095C7.51849 11.8624 7.87902 11.5 8.32376 11.5C8.76849 11.5 9.12902 11.8624 9.12902 12.3095C9.12902 12.7566 8.76849 13.119 8.32376 13.119C7.87902 13.119 7.51849 12.7566 7.51849 12.3095ZM8.32376 15.5476C7.87902 15.5476 7.51849 15.9101 7.51849 16.3571C7.51849 16.8042 7.87902 17.1667 8.32376 17.1667C8.76849 17.1667 9.12902 16.8042 9.12902 16.3571C9.12902 15.9101 8.76849 15.5476 8.32376 15.5476ZM11.5448 12.3095C11.5448 11.8624 11.9053 11.5 12.3501 11.5C12.7948 11.5 13.1553 11.8624 13.1553 12.3095C13.1553 12.7566 12.7948 13.119 12.3501 13.119C11.9053 13.119 11.5448 12.7566 11.5448 12.3095ZM12.3501 15.5476C11.9053 15.5476 11.5448 15.9101 11.5448 16.3571C11.5448 16.8042 11.9053 17.1667 12.3501 17.1667C12.7948 17.1667 13.1553 16.8042 13.1553 16.3571C13.1553 15.9101 12.7948 15.5476 12.3501 15.5476ZM15.5711 12.3095C15.5711 11.8624 15.9317 11.5 16.3764 11.5C16.8211 11.5 17.1817 11.8624 17.1817 12.3095C17.1817 12.7566 16.8211 13.119 16.3764 13.119C15.9317 13.119 15.5711 12.7566 15.5711 12.3095ZM16.3764 15.5476C15.9317 15.5476 15.5711 15.9101 15.5711 16.3571C15.5711 16.8042 15.9317 17.1667 16.3764 17.1667C16.8211 17.1667 17.1817 16.8042 17.1817 16.3571C17.1817 15.9101 16.8211 15.5476 16.3764 15.5476Z" fill="#CDCDCD"/>
</svg>
