<svg width="30" height="30" viewBox="0 0 30 30" fill="none" xmlns="http://www.w3.org/2000/svg">
<g clip-path="url(#clip0)">
<path d="M22.1744 30H18.4199C18.0281 30 17.7101 29.682 17.7101 29.2902V22.7052C17.7101 21.8521 17.016 21.158 16.163 21.158H13.5313C12.6781 21.158 11.984 21.8521 11.984 22.7052V29.2902C11.984 29.682 11.6661 30 11.2743 30H7.50559C5.86891 30 4.53888 28.6685 4.53888 27.0333V16.7136C3.67443 16.7505 2.27905 16.7846 2.27763 16.7846C2.07042 16.8101 1.8802 16.7207 1.73823 16.5774C0.531694 15.3709 0.526014 13.0074 1.72403 11.8065L12.6569 0.87511C13.8223 -0.291703 15.8563 -0.291703 17.0245 0.87511L27.9559 11.8065C29.1639 13.0174 29.1725 15.3807 27.9744 16.5774C27.8324 16.7207 27.6436 16.8101 27.435 16.7846C27.4308 16.7846 26.0325 16.7023 25.1411 16.7136V27.0333C25.1411 28.67 23.8111 30 22.1744 30ZM19.131 28.5805H22.1759C23.0289 28.5805 23.723 27.8864 23.723 27.0334V16.0763C23.723 15.2941 24.5535 15.2941 25.2206 15.2941C25.8451 15.2941 26.6813 15.3283 27.1511 15.3495C27.6153 14.6313 27.5456 13.4063 26.9509 12.81L16.0195 1.87865C15.3893 1.24982 14.2906 1.24982 13.659 1.87865L2.72756 12.8115C2.13986 13.4005 2.08453 14.6284 2.5586 15.351C3.0242 15.3296 3.85035 15.2955 4.46781 15.2955C5.13073 15.2955 5.95683 15.2955 5.95683 16.0776V27.0346C5.95683 27.8878 6.65094 28.5819 7.50408 28.5819H10.5631V22.7067C10.5631 21.0715 11.8945 19.74 13.5298 19.74H16.1629C17.7981 19.74 19.1296 21.0715 19.1296 22.7067V28.5805H19.131Z" fill="#008ACC"/>
</g>
<defs>
<clipPath id="clip0">
<rect width="30" height="30" fill="white"/>
</clipPath>
</defs>
</svg>
