<svg width="30" height="30" viewBox="0 0 30 30" fill="none" xmlns="http://www.w3.org/2000/svg">
<g clip-path="url(#clip0)">
<path d="M22.1744 30H18.4198C18.0281 30 17.7101 29.6821 17.7101 29.2903V22.7053C17.7101 21.8521 17.016 21.158 16.1629 21.158H13.5312C12.6781 21.158 11.984 21.8521 11.984 22.7053V29.2902C11.984 29.682 11.666 30 11.2742 30H7.50553C5.86885 30 4.53881 28.6685 4.53881 27.0332V16.7136C3.67436 16.7505 2.27899 16.7846 2.27757 16.7846C2.07036 16.8102 1.88014 16.7207 1.73817 16.5774C0.531633 15.3708 0.525953 13.0074 1.72396 11.8065L12.6568 0.87511C13.8222 -0.291703 15.8562 -0.291703 17.0245 0.87511L27.9559 11.8065C29.1639 13.0173 29.1724 15.3808 27.9743 16.5774C27.8324 16.7208 27.6436 16.8102 27.4349 16.7846C27.4307 16.7846 26.0325 16.7023 25.1411 16.7136V27.0333C25.1411 28.67 23.811 30 22.1744 30ZM19.131 28.5805H22.1758C23.0289 28.5805 23.723 27.8864 23.723 27.0333V16.0763C23.723 15.2942 24.5534 15.2942 25.2205 15.2942C25.8451 15.2942 26.6812 15.3282 27.151 15.3495C27.6152 14.6313 27.5456 13.4063 26.9509 12.8101L16.0195 1.87865C15.3892 1.24982 14.2906 1.24982 13.6589 1.87865L2.7275 12.8115C2.13981 13.4005 2.08447 14.6284 2.55854 15.3509C3.02414 15.3296 3.85029 15.2956 4.46775 15.2956C5.13067 15.2956 5.95677 15.2956 5.95677 16.0777V27.0347C5.95677 27.8878 6.65088 28.5819 7.50401 28.5819H10.563V22.7067C10.563 21.0715 11.8945 19.74 13.5297 19.74H16.1629C17.7981 19.74 19.1296 21.0714 19.1296 22.7067V28.5805H19.131Z" fill="#898D95"/>
</g>
<defs>
<clipPath id="clip0">
<rect width="30" height="30" fill="white"/>
</clipPath>
</defs>
</svg>
