<svg width="24" height="24" viewBox="0 0 24 24" fill="none" xmlns="http://www.w3.org/2000/svg">
<path d="M17.7395 24H14.7359C14.4225 24 14.1681 23.7456 14.1681 23.4322V18.1642C14.1681 17.4817 13.6128 16.9264 12.9304 16.9264H10.825C10.1425 16.9264 9.58722 17.4817 9.58722 18.1642V23.4322C9.58722 23.7456 9.33287 24 9.01943 24H6.00446C4.69512 24 3.63109 22.9348 3.63109 21.6266V13.3709C2.93953 13.4004 1.82323 13.4277 1.82209 13.4277C1.65632 13.4481 1.50415 13.3766 1.39057 13.2619C0.425343 12.2967 0.420799 10.4059 1.37921 9.44522L10.1255 0.700088C11.0578 -0.233363 12.685 -0.233363 13.6196 0.700088L22.3647 9.44522C23.3311 10.4139 23.338 12.3046 22.3795 13.2619C22.2659 13.3766 22.1149 13.4481 21.948 13.4277C21.9446 13.4277 20.826 13.3618 20.1129 13.3709V21.6266C20.1129 22.936 19.0489 24 17.7395 24ZM15.3048 22.8644H17.7407C18.4231 22.8644 18.9784 22.3091 18.9784 21.6267V12.861C18.9784 12.2353 19.6428 12.2353 20.1765 12.2353C20.6761 12.2353 21.345 12.2626 21.7209 12.2796C22.0922 11.705 22.0365 10.725 21.5607 10.248L12.8156 1.50292C12.3114 0.999852 11.4325 0.999852 10.9272 1.50292L2.18204 10.2492C1.71188 10.7204 1.66761 11.7027 2.04687 12.2808C2.41935 12.2637 3.08027 12.2364 3.57424 12.2364C4.10457 12.2364 4.76545 12.2364 4.76545 12.8621V21.6277C4.76545 22.3102 5.32074 22.8655 6.00325 22.8655H8.45044V18.1654C8.45044 16.8572 9.51561 15.792 10.8238 15.792H12.9303C14.2385 15.792 15.3037 16.8572 15.3037 18.1654V22.8644H15.3048Z" fill="#CDCDCD"/>
</svg>
