<svg width="24" height="24" viewBox="0 0 24 24" fill="none" xmlns="http://www.w3.org/2000/svg">
<path d="M12 4C7.57803 4 4 7.57834 4 12C4 16.422 7.57834 20 12 20C16.422 20 20 16.4217 20 12C20 7.57803 16.4216 4 12 4ZM12 18.75C8.26897 18.75 5.25 15.7308 5.25 12C5.25 8.26897 8.26922 5.25 12 5.25C15.731 5.25 18.75 8.26922 18.75 12C18.75 15.731 15.7308 18.75 12 18.75Z" fill="white"/>
<path d="M12 10.6978C11.6548 10.6978 11.375 10.9776 11.375 11.3228V15.3475C11.375 15.6927 11.6548 15.9725 12 15.9725C12.3452 15.9725 12.625 15.6927 12.625 15.3475V11.3228C12.625 10.9776 12.3452 10.6978 12 10.6978Z" fill="white"/>
<path d="M12 9.93262C12.466 9.93262 12.8438 9.55486 12.8438 9.08887C12.8438 8.62288 12.466 8.24512 12 8.24512C11.534 8.24512 11.1562 8.62288 11.1562 9.08887C11.1562 9.55486 11.534 9.93262 12 9.93262Z" fill="white"/>
</svg>
