<svg width="192" height="49" viewBox="0 0 192 49" fill="none" xmlns="http://www.w3.org/2000/svg">
<path fill-rule="evenodd" clip-rule="evenodd" d="M76.311 28.2892C75.4027 28.4763 74.49 28.566 74.0051 28.5857C72.364 28.6617 72.0563 27.9779 72.0563 25.5638C72.0563 23.1513 72.3689 22.4517 74.0051 22.5255C74.49 22.5468 75.5375 22.7684 76.311 22.8483L76.5415 21.4396C75.7761 21.2996 74.7694 21.1191 74.0839 21.0901C70.4451 20.927 69.5618 22.4703 69.5618 25.5638C69.5618 28.6568 70.4489 30.1743 74.085 30.037C74.8265 30.008 75.8212 29.8707 76.5953 29.7181L76.311 28.2892Z" fill="white"/>
<path fill-rule="evenodd" clip-rule="evenodd" d="M45.8617 17.8035C48.5128 17.8035 50.0969 18.908 50.0969 21.0349C50.0969 22.3155 49.6538 23.1147 48.9597 23.5896C49.8006 24.0135 50.5415 24.775 50.5415 26.2312C50.5415 28.99 48.6101 29.8631 46.1732 29.8631H41.0015V17.8035H45.8617ZM43.4253 19.4966V22.8817H46.0411C47.2425 22.8817 47.6556 22.3883 47.6556 21.0349C47.6556 19.8128 47.2528 19.4966 45.8617 19.4966H43.4253ZM43.4253 24.5546V28.1738H46.1732C47.468 28.1738 48.0981 27.8171 48.0981 26.2312C48.0981 24.5638 46.9098 24.5546 46.0411 24.5546H43.4253Z" fill="white"/>
<path fill-rule="evenodd" clip-rule="evenodd" d="M52.0054 21.5822C53.4324 21.295 54.4244 21.0898 55.4654 21.0898C57.8675 21.0898 58.9645 22.2228 58.9645 23.9711V29.7764C57.5039 29.9454 56.0079 30.1194 54.4005 29.9525C52.4142 29.7446 51.1938 28.7228 51.1938 27.1095C51.1938 25.644 52.0679 24.603 54.3505 24.3349C55.3474 24.2168 56.5542 24.2096 56.5542 24.2096V23.8759C56.5542 22.9843 56.2417 22.5762 55.4654 22.5762C54.6391 22.5762 53.6264 22.7742 52.2669 23.0455L52.0054 21.5822ZM56.5542 25.6478C56.5542 25.6478 55.7671 25.6374 54.9724 25.737C54.1526 25.8409 53.6906 26.2583 53.6906 27.1057C53.6906 27.7408 53.8966 28.295 54.7756 28.4689C55.329 28.5767 55.8899 28.5439 56.5542 28.4711V25.6478Z" fill="white"/>
<path fill-rule="evenodd" clip-rule="evenodd" d="M81.1444 21.0898C83.8754 21.0898 85.498 22.4153 85.498 25.4181C85.498 28.4093 84.6049 30.0176 81.1444 30.0176C77.7252 30.0176 76.7217 28.6084 76.7217 25.3874C76.7217 22.3453 78.1595 21.0898 81.1444 21.0898ZM83.029 25.4181C83.029 23.2173 82.2968 22.5461 81.1444 22.5461C79.6902 22.5461 79.1874 23.0406 79.1874 25.3874C79.1874 27.894 79.5234 28.5685 81.1444 28.5685C82.7425 28.5685 83.029 27.7715 83.029 25.4181Z" fill="white"/>
<path fill-rule="evenodd" clip-rule="evenodd" d="M95.3015 17.8125H97.7048V29.8147C96.3773 29.9684 95.4951 30.0286 94.534 30.0286C90.4728 30.0286 89.646 28.3475 89.646 25.3694C89.646 22.7162 90.5592 21.0718 93.6376 21.0718C94.2654 21.0718 94.8351 21.1145 95.3015 21.1785V17.8125ZM95.3015 22.6533C94.8846 22.5433 94.2595 22.4421 93.6376 22.5275C92.4357 22.6932 92.1449 23.371 92.1449 25.4006C92.1449 27.5269 92.3911 28.4399 94.1828 28.5461C94.9025 28.5882 95.3015 28.5193 95.3015 28.5193V22.6533Z" fill="white"/>
<path fill-rule="evenodd" clip-rule="evenodd" d="M106.701 29.6073C105.383 29.883 104.186 30.0351 103.006 30.0351C99.4198 30.0351 98.6985 28.1533 98.6985 25.557C98.6985 22.2758 100.21 21.0898 102.794 21.0898C105.575 21.0898 107.027 22.4082 107.027 25.2638V26.2545H101.226C101.29 27.8551 101.628 28.5685 103.03 28.5685C103.84 28.5685 105.568 28.3448 106.438 28.156L106.701 29.6073ZM104.59 24.7972C104.526 23.0696 104.053 22.5461 102.879 22.5461C101.774 22.5461 101.29 23.0816 101.226 24.7972H104.59Z" fill="white"/>
<path fill-rule="evenodd" clip-rule="evenodd" d="M60.251 21.9463C61.6448 21.391 62.9233 21.0715 64.3828 21.0715C67.4906 21.0715 68.5473 22.5907 68.5473 25.3691V29.8527H66.1338V25.3713C66.1338 23.2367 65.6635 22.5289 64.3828 22.5289C63.7485 22.5289 63.0652 22.6684 62.6319 22.7865V29.8527H60.251V21.9463Z" fill="white"/>
<path fill-rule="evenodd" clip-rule="evenodd" d="M7.13501 28.1715L20.6694 41.7923L34.2038 28.1715L31.0574 25.0041L20.6694 35.457L13.4304 28.1715L20.6694 20.887L23.7554 23.9915L26.9033 20.8252L20.6694 14.55L7.13501 28.1715Z" fill="white"/>
<path fill-rule="evenodd" clip-rule="evenodd" d="M34.2031 20.8281L20.6692 7.20776L7.13647 20.8281L10.2822 23.9949L20.6692 13.5431L27.9077 20.8281L20.6692 28.112L17.5838 25.0081L14.4348 28.1755L20.6692 34.4484L34.2031 20.8281Z" fill="white"/>
<path fill-rule="evenodd" clip-rule="evenodd" d="M137.592 28.2892C136.685 28.4763 135.773 28.566 135.287 28.5857C133.647 28.6617 133.338 27.9779 133.338 25.5638C133.338 23.1513 133.65 22.4517 135.287 22.5255C135.773 22.5468 136.821 22.7684 137.593 22.8483L137.822 21.4396C137.058 21.2996 136.05 21.1191 135.364 21.0901C131.727 20.927 130.844 22.4703 130.844 25.5638C130.844 28.6568 131.731 30.1743 135.367 30.037C136.108 30.008 137.102 29.8707 137.876 29.7181L137.592 28.2892Z" fill="white"/>
<path fill-rule="evenodd" clip-rule="evenodd" d="M130.167 28.2892C129.26 28.4763 128.347 28.566 127.861 28.5857C126.223 28.6617 125.913 27.9779 125.913 25.5638C125.913 23.1513 126.228 22.4517 127.861 22.5255C128.347 22.5468 129.396 22.7684 130.167 22.8483L130.397 21.4396C129.633 21.2996 128.626 21.1191 127.94 21.0901C124.302 20.927 123.419 22.4703 123.419 25.5638C123.419 28.6568 124.305 30.1743 127.941 30.037C128.683 30.008 129.679 29.8707 130.453 29.7181L130.167 28.2892Z" fill="white"/>
<path fill-rule="evenodd" clip-rule="evenodd" d="M122.468 23.6484C122.468 27.8316 121.371 30.0007 116.863 30.0007C112.389 30.0007 111.154 28.1128 111.154 23.6046C111.154 19.3595 112.95 17.6807 116.863 17.6807C120.429 17.6807 122.468 19.4553 122.468 23.6484ZM116.863 28.3108C119.525 28.3108 119.988 26.9717 119.988 23.6484C119.988 20.4476 118.791 19.3552 116.863 19.3552C114.525 19.3552 113.636 20.2255 113.636 23.6046C113.636 27.1785 114.168 28.3108 116.863 28.3108Z" fill="white"/>
<path fill-rule="evenodd" clip-rule="evenodd" d="M138.996 19.939H141.377V18.1299H138.996V19.939ZM138.996 29.8629H141.377V21.2502H138.996V29.8629Z" fill="white"/>
<path fill-rule="evenodd" clip-rule="evenodd" d="M148.224 17.8125H150.626V29.8147C149.269 29.9317 148.416 30.0286 147.46 30.0286C143.397 30.0286 142.569 28.3475 142.569 25.3694C142.569 22.7162 143.483 21.0718 146.562 21.0718C147.189 21.0718 147.759 21.1145 148.224 21.1785V17.8125ZM148.224 22.6533C147.805 22.5433 147.182 22.4421 146.563 22.5275C145.359 22.6932 145.068 23.371 145.068 25.4006C145.068 27.5269 145.313 28.4585 147.107 28.5461C147.226 28.5559 147.374 28.5587 147.534 28.5587C147.742 28.5587 148.018 28.5242 148.224 28.5193V22.6533Z" fill="white"/>
<path fill-rule="evenodd" clip-rule="evenodd" d="M161.272 21.9463C162.664 21.391 163.941 21.0715 165.403 21.0715C168.511 21.0715 169.57 22.5907 169.57 25.3691V29.8527H167.154V25.3713C167.154 23.2367 166.682 22.5289 165.403 22.5289C164.769 22.5289 164.085 22.6684 163.652 22.7865V29.8527H161.272V21.9463Z" fill="white"/>
<path fill-rule="evenodd" clip-rule="evenodd" d="M174.012 19.2512V21.2901H175.915V22.7452H174.012V27.022C174.012 28.0154 174.09 28.3825 174.51 28.4443C174.882 28.4968 175.253 28.4372 175.909 28.3781L176.191 29.8119C175.144 30.0149 174.394 30.0258 174.032 30.0258C171.918 30.0258 171.552 29.0422 171.552 27.022V22.7463H170.086V21.2901H171.552V19.2512H174.012Z" fill="white"/>
<path fill-rule="evenodd" clip-rule="evenodd" d="M159.811 29.5997C158.495 29.8754 157.296 30.0264 156.118 30.0264C152.532 30.0264 151.81 28.1435 151.81 25.5483C151.81 22.2677 153.32 21.0806 155.906 21.0806C158.686 21.0806 160.14 22.4017 160.14 25.2551V26.2458H154.338C154.402 27.8481 154.741 28.5587 156.142 28.5587C156.951 28.5587 158.682 28.3349 159.549 28.1462L159.811 29.5997ZM157.702 24.7895C157.638 23.0625 157.165 22.5379 155.99 22.5379C154.885 22.5379 154.402 23.074 154.338 24.7895H157.702Z" fill="white"/>
<path fill-rule="evenodd" clip-rule="evenodd" d="M184.534 29.6073C183.219 29.883 182.021 30.0351 180.84 30.0351C177.257 30.0351 176.534 28.1533 176.534 25.557C176.534 22.2758 178.045 21.0898 180.629 21.0898C183.408 21.0898 184.865 22.4082 184.865 25.2638V26.2545H179.06C179.124 27.8551 179.464 28.5685 180.866 28.5685C181.674 28.5685 183.406 28.3448 184.273 28.156L184.534 29.6073ZM182.424 24.7972C182.362 23.0696 181.887 22.5461 180.715 22.5461C179.61 22.5461 179.124 23.0816 179.06 24.7972H182.424Z" fill="white"/>
</svg>
