<svg width="30" height="30" viewBox="0 0 30 30" fill="none" xmlns="http://www.w3.org/2000/svg">
<path d="M25.9051 19.2414V7.75865V7.24143L19.6982 0H19.181H8.31897C7.18101 0 6.25 0.931007 6.25 2.06897V25.8621C6.25 27 7.18101 27.931 8.31897 27.931H18.9741C20.0086 29.1724 21.5603 30 23.3189 30C26.4224 30 29.0086 27.4138 29.0086 24.3103C29.0086 22.1379 27.7672 20.1724 25.9051 19.2414ZM19.6982 1.55175L24.5603 7.24143H20.7327C20.2155 7.24143 19.6982 6.72422 19.6982 6.20695V1.55175ZM8.31897 26.8966C7.80175 26.8966 7.28448 26.4828 7.28448 25.8621V2.06897C7.28448 1.55175 7.69828 1.03448 8.31897 1.03448H18.6638V6.2069C18.6638 7.34485 19.5949 8.27586 20.7328 8.27586H24.8707V18.8276C24.3535 18.7241 23.8362 18.6207 23.3189 18.6207C20.2155 18.6207 17.6293 21.2069 17.6293 24.3104C17.6293 25.2414 17.8362 26.069 18.2499 26.8966H8.31897ZM23.3189 28.9655C20.7328 28.9655 18.6638 26.8966 18.6638 24.3104C18.6638 21.7242 20.7328 19.6552 23.3189 19.6552C25.9051 19.6552 27.9741 21.7242 27.9741 24.3104C27.9741 26.8966 25.9051 28.9655 23.3189 28.9655Z" fill="#008ACC"/>
<path d="M26.0085 22.4482L22.8017 25.6551L21.1465 23.9999L20.3188 24.7241L22.8017 27.1034L26.8361 23.1724L26.0085 22.4482Z" fill="#008ACC"/>
</svg>
