<svg width="30" height="30" viewBox="0 0 30 30" fill="none" xmlns="http://www.w3.org/2000/svg">
<path d="M25.9051 19.2414V7.75865V7.24144L19.6983 0H19.181H8.31896C7.18101 0 6.25 0.931007 6.25 2.06896V25.8621C6.25 27 7.18101 27.931 8.31896 27.931H18.9741C20.0086 29.1724 21.5602 30 23.3189 30C26.4224 30 29.0086 27.4139 29.0086 24.3104C29.0086 22.1379 27.7671 20.1725 25.9051 19.2414ZM19.6983 1.55175L24.5604 7.24144H20.7328C20.2155 7.24144 19.6983 6.72421 19.6983 6.20695V1.55175ZM8.31896 26.8965C7.80175 26.8965 7.28449 26.4827 7.28449 25.8621V2.06896C7.28449 1.55175 7.69827 1.03448 8.31896 1.03448H18.6637V6.2069C18.6637 7.34485 19.5949 8.27586 20.7328 8.27586H24.8708V18.8276C24.3535 18.7241 23.8362 18.6207 23.3189 18.6207C20.2155 18.6207 17.6293 21.2069 17.6293 24.3104C17.6293 25.2414 17.8361 26.069 18.25 26.8965H8.31896ZM23.3189 28.9655C20.7327 28.9655 18.6637 26.8965 18.6637 24.3104C18.6637 21.7242 20.7327 19.6553 23.3189 19.6553C25.9051 19.6553 27.9741 21.7242 27.9741 24.3104C27.9741 26.8965 25.9051 28.9655 23.3189 28.9655Z" fill="#898D95"/>
<path d="M26.0085 22.4481L22.8016 25.655L21.1465 23.9999L20.3189 24.724L22.8016 27.1032L26.8361 23.1722L26.0085 22.4481Z" fill="#898D95"/>
</svg>
