<svg width="24" height="24" viewBox="0 0 24 24" fill="none" xmlns="http://www.w3.org/2000/svg">
<path fill-rule="evenodd" clip-rule="evenodd" d="M3.94737 9.35527C3.94737 6.34677 6.49228 3.9079 9.63158 3.9079C12.7709 3.9079 15.3158 6.34677 15.3158 9.35527C15.3158 12.3638 12.7709 14.8026 9.63158 14.8026C6.49228 14.8026 3.94737 12.3638 3.94737 9.35527ZM9.63158 3C5.96906 3 3 5.84535 3 9.35527C3 12.8652 5.96906 15.7105 9.63158 15.7105C11.2949 15.7105 12.8152 15.1237 13.9793 14.1543C13.995 14.1759 14.013 14.1965 14.0331 14.2158L20.1914 20.1171C20.3764 20.2943 20.6763 20.2943 20.8613 20.117C21.0463 19.9397 21.0462 19.6523 20.8612 19.4751L14.703 13.5738C14.6829 13.5545 14.6614 13.5374 14.6388 13.5223C15.6506 12.4066 16.2632 10.9495 16.2632 9.35527C16.2632 5.84535 13.2941 3 9.63158 3Z" fill="#008ACC"/>
</svg>
