<svg width="20" height="20" viewBox="0 0 20 20" fill="none" xmlns="http://www.w3.org/2000/svg">
<path fill-rule="evenodd" clip-rule="evenodd" d="M5.88885 4.73684C5.88885 2.70211 7.54291 1.05263 9.58329 1.05263C11.6237 1.05263 13.2777 2.70211 13.2777 4.73684C13.2777 6.77158 11.6237 8.42105 9.58329 8.42105C7.54291 8.42105 5.88885 6.77158 5.88885 4.73684ZM9.58329 0C6.95994 0 4.83329 2.12076 4.83329 4.73684C4.83329 7.35293 6.95994 9.47368 9.58329 9.47368C12.2066 9.47368 14.3333 7.35293 14.3333 4.73684C14.3333 2.12076 12.2066 0 9.58329 0ZM6.13514 11.5789C4.93781 11.5789 3.79754 12.0875 2.96279 12.9794C2.12918 13.8701 1.66663 15.0708 1.66663 16.3158V17.3684C1.66663 18.8218 2.8481 20 4.30551 20H14.8611C16.3185 20 17.5 18.8218 17.5 17.3684V16.3158C17.5 15.0708 17.0374 13.8701 16.2038 12.9794C15.369 12.0875 14.2288 11.5789 13.0314 11.5789H6.13514ZM3.73445 13.6976C4.37777 13.0103 5.24218 12.6316 6.13514 12.6316H13.0314C13.9244 12.6316 14.7888 13.0103 15.4321 13.6976C16.0766 14.3862 16.4444 15.3274 16.4444 16.3158V17.3684C16.4444 18.2404 15.7355 18.9474 14.8611 18.9474H4.30551C3.43106 18.9474 2.72218 18.2404 2.72218 17.3684V16.3158C2.72218 15.3274 3.09 14.3862 3.73445 13.6976Z" fill="white"/>
</svg>
