<svg width="24" height="24" viewBox="0 0 24 24" fill="none" xmlns="http://www.w3.org/2000/svg">
<path d="M12.1447 23H8.4445C6.24461 23 5.14467 23 4.46125 22.284C3.77783 21.5681 3.77783 20.4158 3.77783 18.1111V5.88889C3.77783 3.58424 3.77783 2.43192 4.46125 1.71596C5.14467 1 6.24461 1 8.4445 1H15.4445C17.6444 1 18.7443 1 19.4277 1.71596C20.1112 2.43192 20.1112 3.58424 20.1112 5.88889V14.6541C20.1112 15.1537 20.1112 15.4035 20.0224 15.6281C19.9336 15.8527 19.765 16.0294 19.4277 16.3826L13.7946 22.284C13.4574 22.6373 13.2888 22.8139 13.0744 22.907C12.86 23 12.6215 23 12.1447 23Z" stroke="#008ACC"/>
<path d="M11.9445 23V17.2963C11.9445 15.9519 11.9445 15.2797 12.3431 14.8621C12.7418 14.4444 13.3834 14.4444 14.6667 14.4444H20.1111" stroke="#008ACC"/>
</svg>
