<svg width="24" height="24" viewBox="0 0 24 24" fill="none" xmlns="http://www.w3.org/2000/svg">
<path d="M20.5447 5.00921L12.6303 1.61734C12.2278 1.44484 11.7722 1.44484 11.3697 1.61734L3.45535 5.00921C2.79996 5.29009 2.40953 5.97076 2.49798 6.6783L3.39667 13.8679C3.60425 15.5285 4.43488 17.0482 5.72049 18.1195L10.9757 22.4989C11.5691 22.9933 12.4309 22.9933 13.0243 22.4989L18.2795 18.1195C19.5651 17.0482 20.3958 15.5285 20.6033 13.8679L21.502 6.6783C21.5905 5.97077 21.2 5.29009 20.5447 5.00921Z" stroke="#008ACC" stroke-width="1.2" stroke-linecap="round"/>
<circle cx="12" cy="9" r="3" stroke="#008ACC" stroke-linecap="round"/>
<path d="M18 17.7059C17.6461 16.6427 16.8662 15.7033 15.7814 15.0332C14.6966 14.3632 13.3674 14 12 14C10.6326 14 9.30341 14.3632 8.21858 15.0332C7.13375 15.7033 6.35391 16.6427 6 17.7059" stroke="#008ACC" stroke-linecap="round"/>
</svg>
