<svg width="24" height="24" viewBox="0 0 24 24" fill="none" xmlns="http://www.w3.org/2000/svg">
<path d="M15.0555 22.9998V16.6665C15.0555 16.1142 14.6078 15.6665 14.0555 15.6665H9.9444C9.39211 15.6665 8.9444 16.1142 8.9444 16.6665V22.9998" stroke="#008ACC" stroke-linecap="round" stroke-linejoin="round"/>
<path d="M3.4444 10.7778V19.0001C3.4444 20.8857 3.4444 21.8285 4.03018 22.4143C4.61597 23.0001 5.55878 23.0001 7.4444 23.0001H16.5555C18.4411 23.0001 19.3839 23.0001 19.9697 22.4143C20.5555 21.8285 20.5555 20.8857 20.5555 19.0001V10.7778" stroke="#008ACC"/>
<path d="M3.06571 2.51493C3.2476 1.78737 3.33855 1.42359 3.60981 1.21179C3.88107 1 4.25605 1 5.006 1H18.994C19.744 1 20.1189 1 20.3902 1.21179C20.6615 1.42359 20.7524 1.78737 20.9343 2.51493L22.4895 8.73591C22.6714 9.46323 22.7623 9.82689 22.6623 10.1104C22.5898 10.3158 22.4523 10.4919 22.2706 10.612C22.0198 10.7778 21.6393 10.7778 20.8783 10.7778V10.7778C19.8677 10.7778 19.3624 10.7778 18.9609 10.5907C18.6364 10.4396 18.3584 10.2041 18.1559 9.90883C17.9054 9.54351 17.8235 9.05235 17.6598 8.07003V8.07003C17.6139 7.79468 17.591 7.657 17.5509 7.6333C17.5195 7.61475 17.4805 7.61475 17.4491 7.6333C17.409 7.657 17.3861 7.79468 17.3402 8.07003L17.2405 8.66799C17.1715 9.08202 17.137 9.28903 17.0737 9.46281C16.8315 10.1271 16.2565 10.6142 15.5614 10.7439C15.3796 10.7778 15.1697 10.7778 14.75 10.7778V10.7778C14.3303 10.7778 14.1204 10.7778 13.9386 10.7439C13.2435 10.6142 12.6685 10.1271 12.4263 9.46281C12.363 9.28903 12.3285 9.08202 12.2595 8.66799L12.1598 8.07003C12.1139 7.79468 12.091 7.657 12.0509 7.6333C12.0195 7.61475 11.9805 7.61475 11.9491 7.6333C11.909 7.657 11.8861 7.79468 11.8402 8.07003L11.7405 8.66799C11.6715 9.08202 11.637 9.28903 11.5737 9.46281C11.3315 10.1271 10.7565 10.6142 10.0614 10.7439C9.87961 10.7778 9.66974 10.7778 9.25 10.7778V10.7778C8.83026 10.7778 8.62039 10.7778 8.43856 10.7439C7.74348 10.6142 7.16853 10.1271 6.92634 9.46281C6.86299 9.28903 6.82848 9.08202 6.75948 8.66799L6.65982 8.07003C6.61393 7.79468 6.59098 7.657 6.55088 7.6333C6.5195 7.61475 6.4805 7.61475 6.44912 7.6333C6.40902 7.657 6.38607 7.79468 6.34018 8.07003V8.07003C6.17646 9.05235 6.0946 9.54351 5.8441 9.90883C5.64164 10.2041 5.36364 10.4396 5.03912 10.5907C4.63759 10.7778 4.13228 10.7778 3.12167 10.7778V10.7778C2.36066 10.7778 1.98016 10.7778 1.72937 10.612C1.54767 10.4919 1.41015 10.3158 1.33771 10.1104C1.23772 9.82689 1.32864 9.46323 1.51047 8.73591L3.06571 2.51493Z" stroke="#008ACC"/>
</svg>
