<svg width="24" height="24" viewBox="0 0 24 24" fill="none" xmlns="http://www.w3.org/2000/svg">
<path d="M16.3749 2.96436C18.0302 2.96436 18.8578 2.96436 19.4523 3.3616C19.7097 3.53358 19.9307 3.75456 20.1027 4.01194C20.4999 4.60646 20.4999 5.43409 20.4999 7.08934V18.2857C20.4999 20.508 20.4999 21.6192 19.8095 22.3096C19.1192 23 18.008 23 15.7857 23H8.71426C6.49194 23 5.38078 23 4.69039 22.3096C4 21.6192 4 20.508 4 18.2857V7.08934C4 5.43409 4 4.60646 4.39725 4.01194C4.56922 3.75456 4.7902 3.53358 5.04758 3.3616C5.6421 2.96436 6.46973 2.96436 8.12498 2.96436" stroke="#008ACC"/>
<path d="M7.66666 3.29166C7.66666 2.02601 9.03467 1 10.7222 1H13.7777C15.4653 1 16.8333 2.02601 16.8333 3.29166C16.8333 4.5573 15.4653 5.58331 13.7777 5.58331H10.7222C9.03467 5.58331 7.66666 4.5573 7.66666 3.29166Z" stroke="#008ACC"/>
<path d="M8.71423 11.2144L15.7856 11.2144" stroke="#008ACC" stroke-linecap="round"/>
<path d="M8.71423 15.9287L13.4285 15.9287" stroke="#008ACC" stroke-linecap="round"/>
</svg>
